<svg width="124" height="124" viewBox="0 0 187 187" fill="none" xmlns="http://www.w3.org/2000/svg">
<path d="M158.125 53H28.875C25.6303 53 23 54.4426 23 56.2222V92.5C23 94.2796 46.5 104 58 106.5L80.5 110.5H98C134.5 107.5 164 91.7796 164 90V56.2222C164 54.4426 161.37 53 158.125 53Z" fill="transparent"/>
<path d="M122.719 52.5938V40.9062C122.719 37.8065 121.487 34.8338 119.296 32.6419C117.104 30.4501 114.131 29.2188 111.031 29.2188H75.9688C72.869 29.2188 69.8963 30.4501 67.7044 32.6419C65.5126 34.8338 64.2812 37.8065 64.2812 40.9062V52.5938" stroke="white" stroke-width="4" stroke-linecap="round" stroke-linejoin="round"/>
<path d="M163.631 92.2646C142.318 104.595 118.123 111.07 93.5001 111.031C68.8814 111.07 44.6903 104.598 23.3799 92.2708" stroke="#9B489B" stroke-width="4" stroke-linecap="round" stroke-linejoin="round"/>
<path d="M84.7344 87.6562H102.266" stroke="white" stroke-width="4" stroke-linecap="round" stroke-linejoin="round"/>
<path d="M157.787 52.5938H29.2246C25.9972 52.5938 23.3809 55.2101 23.3809 58.4375V151.938C23.3809 155.165 25.9972 157.781 29.2246 157.781H157.787C161.015 157.781 163.631 155.165 163.631 151.938V58.4375C163.631 55.2101 161.015 52.5938 157.787 52.5938Z" stroke="white" stroke-width="4" stroke-linecap="round" stroke-linejoin="round"/>
</svg>
