<svg width="100" height="90" viewBox="0 0 151 136" fill="none" xmlns="http://www.w3.org/2000/svg">
<path d="M45.6387 74.3246L145.064 5.90709" stroke="#9B489B" stroke-width="4" stroke-linecap="round" stroke-linejoin="round"/>
<path d="M78.4419 103.191L55.6146 126.018C54.7973 126.836 53.7561 127.392 52.6225 127.618C51.4889 127.843 50.3139 127.727 49.2461 127.285C48.1783 126.843 47.2657 126.094 46.6235 125.133C45.9814 124.172 45.6387 123.042 45.6387 121.886V74.3242" fill="white"/>
<path d="M78.4419 103.191L55.6146 126.018C54.7973 126.836 53.7561 127.392 52.6225 127.618C51.4889 127.843 50.3139 127.727 49.2461 127.285C48.1783 126.843 47.2657 126.094 46.6235 125.133C45.9814 124.172 45.6387 123.042 45.6387 121.886V74.3242" stroke="black" stroke-width="4" stroke-linecap="round" stroke-linejoin="round"/>
<path d="M45.6388 74.3245L111.321 132.124C112.081 132.793 113.001 133.253 113.992 133.459C114.983 133.665 116.011 133.61 116.975 133.299C117.938 132.989 118.804 132.433 119.488 131.687C120.173 130.941 120.651 130.03 120.877 129.043L148.353 9.14909C148.59 8.11249 148.541 7.03071 148.209 6.02034C147.877 5.00996 147.276 4.10929 146.47 3.41538C145.664 2.72148 144.684 2.26064 143.635 2.08254C142.587 1.90443 141.51 2.01581 140.52 2.40467L5.70697 55.3669C4.53204 55.8285 3.53817 56.6581 2.87406 57.7317C2.20996 58.8052 1.91133 60.0649 2.02286 61.3223C2.13439 62.5797 2.65009 63.7672 3.49279 64.7071C4.33548 65.647 5.45987 66.2887 6.69769 66.5363L45.6388 74.3245Z" stroke="white" stroke-width="4" stroke-linecap="round" stroke-linejoin="round"/>
</svg>
