<?xml version="1.0" encoding="UTF-8" standalone="no"?>
<svg
   width="150.87988"
   height="28.613981"
   viewBox="0 0 164.87988 36.363601"
   fill="none"
   version="1.1"
   id="svg6"
   sodipodi:docname="logo.svg"
   inkscape:version="1.2.2 (732a01da63, 2022-12-09)"
   xmlns:inkscape="http://www.inkscape.org/namespaces/inkscape"
   xmlns:sodipodi="http://sodipodi.sourceforge.net/DTD/sodipodi-0.dtd"
   xmlns="http://www.w3.org/2000/svg"
   xmlns:svg="http://www.w3.org/2000/svg">
  <defs
     id="defs10" />
  <sodipodi:namedview
     id="namedview8"
     pagecolor="#ffffff"
     bordercolor="#000000"
     borderopacity="0.25"
     inkscape:showpageshadow="2"
     inkscape:pageopacity="0.0"
     inkscape:pagecheckerboard="0"
     inkscape:deskcolor="#d1d1d1"
     showgrid="false"
     inkscape:zoom="8.2777778"
     inkscape:cx="105.94631"
     inkscape:cy="-11.47651"
     inkscape:window-width="2560"
     inkscape:window-height="1346"
     inkscape:window-x="-11"
     inkscape:window-y="-11"
     inkscape:window-maximized="1"
     inkscape:current-layer="svg6" />
  <path
     d="M -21.624999,36.3636 V 0 H 3.1974652 V 7.1377 H -12.835928 v 7.4574 H 1.6171652 v 7.1556 H -12.835928 V 36.3636 Z M 16.412065,0 V 36.3636 H 7.6230653 V 0 Z m 36.465804,0 v 36.3636 h -7.4574 l -14.4709,-20.9872 h -0.2308 v 20.9872 h -8.7891 V 0 h 7.5639 l 14.3111,20.9517 h 0.3019 V 0 Z m 18.9675,36.3636 h -13.4411 V 0 h 13.4233 c 3.704997,0 6.895294,0.7279 9.570291,2.1839 2.686997,1.4441 4.758994,3.5275 6.214994,6.25 1.454997,2.7107 2.182997,5.9541 2.182997,9.7301 0,3.7879 -0.728,7.0431 -2.182997,9.7657 -1.445,2.7225 -3.509997,4.8117 -6.196994,6.2677 -2.686997,1.4441 -5.877294,2.1662 -9.570491,2.1662 z m -4.652,-7.4929 h 4.3146 c 2.036,0 3.7583,-0.3433 5.166897,-1.0298 1.419997,-0.6984 2.491997,-1.8289 3.213997,-3.3914 0.733997,-1.5743 1.100997,-3.6695 1.100997,-6.2855 0,-2.616 -0.367,-4.6993 -1.100997,-6.25 -0.734,-1.5625 -1.817,-2.687 -3.248997,-3.3736 C 75.218969,7.8421 73.467069,7.4929 71.383669,7.4929 h -4.1903 z M 116.41187,0 h 10.884 l 9.233,22.5142 h 0.427 L 146.18887,0 h 10.884 v 36.3636 h -8.558 V 14.027 h -0.302 l -8.736,22.1058 h -5.469 l -8.736,-22.2301 h -0.302 v 22.4609 h -8.558 z m 46.143,36.3636 V 0 h 25.355 v 7.1377 h -16.566 v 7.4574 h 15.27 v 7.1556 h -15.27 v 7.4751 h 16.566 v 7.1378 z"
     fill="#ffffff"
     id="path2" />
  <circle
     cx="101.96935"
     cy="27.710077"
     r="8.5"
     fill="#ff8266"
     id="circle4" />
</svg>
