<svg width="19" height="32" viewBox="0 0 19 32" fill="none" xmlns="http://www.w3.org/2000/svg">
<path d="M1.94473 1.9411L17.726 16.1442L1.94473 30.3473" stroke="black" stroke-width="2" stroke-linecap="round" stroke-linejoin="round"/>
<path d="M1.30103 30.9743C0.984122 30.6574 0.918586 30.3227 1.09896 29.9422C1.15134 29.8318 4.59161 26.6919 8.744 22.9647C12.8964 19.2375 16.2938 16.1683 16.2938 16.1442C16.2938 16.1202 12.8964 13.051 8.744 9.32376C4.59161 5.59656 1.15134 2.45665 1.09896 2.34618C0.918586 1.96574 0.984122 1.63101 1.30103 1.31411C1.73498 0.88016 2.1642 0.89519 2.70502 1.36327C2.92519 1.55382 6.58734 4.84371 10.8431 8.67413C15.786 13.1229 18.5999 15.7143 18.6336 15.8482C18.794 16.4877 19.0999 16.1828 10.8396 23.6174C6.58577 27.4461 2.92519 30.7346 2.70502 30.9251C2.1642 31.3932 1.73498 31.4083 1.30103 30.9743Z" fill="white"/>
</svg>