<svg width="19" height="32" viewBox="0 0 19 32" fill="none" xmlns="http://www.w3.org/2000/svg">
<path d="M17.7076 1.95581L1.92633 16.1589L17.7076 30.362" stroke="black" stroke-width="2" stroke-linecap="round" stroke-linejoin="round"/>
<path d="M17.352 31.2382C17.0772 31.1279 1.11432 16.7001 1.05286 16.5064C0.9616 16.2189 0.991219 15.8556 1.12077 15.6738C1.34348 15.3612 17.2166 1.1297 17.4352 1.04658C18.0969 0.794984 18.8688 1.61376 18.5944 2.27622C18.5281 2.43632 15.6613 5.07601 10.9334 9.33042C6.77807 13.0695 3.38099 16.1507 3.38431 16.1775C3.38761 16.2043 6.48008 19.0004 10.2564 22.3909C18.645 29.9225 18.5656 29.8488 18.6352 30.1659C18.7886 30.8642 18.0201 31.5064 17.352 31.2382Z" fill="white"/>
</svg>